<svg id="mermaidChart425" width="100%" xmlns="http://www.w3.org/2000/svg" height="100%" style="max-width:2050px;" viewBox="-50 -10 2050 611"><style type="text/css" title="mermaid-svg-internal-css">/*  */
*, ::before, ::after { box-sizing: inherit;}
.actor { stroke: rgb(204, 204, 255); fill: rgb(226, 236, 255);}
text.actor { fill: black; stroke: none; font-size: 12px;}
.actor-line { stroke: grey;}
.messageLine0 { stroke-width: 1.5; stroke: black;}
#arrowhead { fill: black;}
.messageText { fill: black; stroke: none; font-size: 12px;}
.actor { stroke: rgb(204, 204, 255); fill: rgb(236, 236, 255);}
text.actor { fill: black; stroke: none;}
.actor-line { stroke: grey;}
.messageLine0 { stroke-width: 1.5; stroke: rgb(51, 51, 51);}
#arrowhead { fill: rgb(51, 51, 51);}
#crosshead path { fill: rgb(51, 51, 51) !important; stroke: rgb(51, 51, 51) !important;}
.messageText { fill: rgb(51, 51, 51); stroke: none;}
text { font-family: "trebuchet ms", verdana, arial; font-size: 14px;}
/*  */
</style><g></g><g><line id="actor3170" x1="75" y1="5" x2="75" y2="600" class="actor-line" stroke-width="0.5px" stroke="#999"></line><rect x="0" y="0" fill="#eaeaea" stroke="#666" width="150" height="65" rx="3" ry="3" class="actor"></rect><text x="75" y="37.5" class="actor" style="text-anchor: middle;">index.html</text></g><g><line id="actor3171" x1="275" y1="5" x2="275" y2="600" class="actor-line" stroke-width="0.5px" stroke="#999"></line><rect x="200" y="0" fill="#eaeaea" stroke="#666" width="150" height="65" rx="3" ry="3" class="actor"></rect><text x="275" y="37.5" class="actor" style="text-anchor: middle;">main.js</text></g><g><line id="actor3172" x1="475" y1="5" x2="475" y2="600" class="actor-line" stroke-width="0.5px" stroke="#999"></line><rect x="400" y="0" fill="#eaeaea" stroke="#666" width="150" height="65" rx="3" ry="3" class="actor"></rect><text x="475" y="37.5" class="actor" style="text-anchor: middle;">Element.UI</text></g><g><line id="actor3173" x1="675" y1="5" x2="675" y2="600" class="actor-line" stroke-width="0.5px" stroke="#999"></line><rect x="600" y="0" fill="#eaeaea" stroke="#666" width="150" height="65" rx="3" ry="3" class="actor"></rect><text x="675" y="37.5" class="actor" style="text-anchor: middle;">VueResource</text></g><g><line id="actor3174" x1="875" y1="5" x2="875" y2="600" class="actor-line" stroke-width="0.5px" stroke="#999"></line><rect x="800" y="0" fill="#eaeaea" stroke="#666" width="150" height="65" rx="3" ry="3" class="actor"></rect><text x="875" y="37.5" class="actor" style="text-anchor: middle;">resource/interceptors</text></g><g><line id="actor3175" x1="1075" y1="5" x2="1075" y2="600" class="actor-line" stroke-width="0.5px" stroke="#999"></line><rect x="1000" y="0" fill="#eaeaea" stroke="#666" width="150" height="65" rx="3" ry="3" class="actor"></rect><text x="1075" y="37.5" class="actor" style="text-anchor: middle;">router</text></g><g><line id="actor3176" x1="1275" y1="5" x2="1275" y2="600" class="actor-line" stroke-width="0.5px" stroke="#999"></line><rect x="1200" y="0" fill="#eaeaea" stroke="#666" width="150" height="65" rx="3" ry="3" class="actor"></rect><text x="1275" y="37.5" class="actor" style="text-anchor: middle;">VueRouter</text></g><g><line id="actor3177" x1="1475" y1="5" x2="1475" y2="600" class="actor-line" stroke-width="0.5px" stroke="#999"></line><rect x="1400" y="0" fill="#eaeaea" stroke="#666" width="150" height="65" rx="3" ry="3" class="actor"></rect><text x="1475" y="37.5" class="actor" style="text-anchor: middle;">config/router</text></g><g><line id="actor3178" x1="1675" y1="5" x2="1675" y2="600" class="actor-line" stroke-width="0.5px" stroke="#999"></line><rect x="1600" y="0" fill="#eaeaea" stroke="#666" width="150" height="65" rx="3" ry="3" class="actor"></rect><text x="1675" y="37.5" class="actor" style="text-anchor: middle;">App.vue</text></g><g><line id="actor3179" x1="1875" y1="5" x2="1875" y2="600" class="actor-line" stroke-width="0.5px" stroke="#999"></line><rect x="1800" y="0" fill="#eaeaea" stroke="#666" width="150" height="65" rx="3" ry="3" class="actor"></rect><text x="1875" y="37.5" class="actor" style="text-anchor: middle;">Biz.vue</text></g><defs><marker id="arrowhead" refX="5" refY="2" markerWidth="6" markerHeight="4" orient="auto"><path d="M 0,0 V 4 L6,2 Z"></path></marker></defs><defs><marker id="crosshead" markerWidth="15" markerHeight="8" orient="auto" refX="16" refY="4"><path fill="black" stroke="#000000" stroke-width="1px" d="M 9,2 V 6 L16,4 Z" style="stroke-dasharray: 0, 0;"></path><path fill="none" stroke="#000000" stroke-width="1px" d="M 0,1 L 6,7 M 6,1 L 0,7" style="stroke-dasharray: 0, 0;"></path></marker></defs><g><text x="175" y="93" class="messageText" style="text-anchor: middle;">0.加载Web应用入口脚本</text><line x1="75" y1="100" x2="275" y2="100" class="messageLine0" stroke-width="2" stroke="black" marker-end="url(#arrowhead)" style="fill: none;"></line></g><g><text x="375" y="128" class="messageText" style="text-anchor: middle;">1.加载ElementUI控件（语言zh-CN）</text><line x1="275" y1="135" x2="475" y2="135" class="messageLine0" stroke-width="2" stroke="black" marker-end="url(#arrowhead)" style="fill: none;"></line></g><g><text x="475" y="163" class="messageText" style="text-anchor: middle;">2.加载Service模块(vue-resource)</text><line x1="275" y1="170" x2="675" y2="170" class="messageLine0" stroke-width="2" stroke="black" marker-end="url(#arrowhead)" style="fill: none;"></line></g><g><text x="775" y="198" class="messageText" style="text-anchor: middle;">3.加载全局Restful服务调用钩子</text><line x1="675" y1="205" x2="875" y2="205" class="messageLine0" stroke-width="2" stroke="black" marker-end="url(#arrowhead)" style="fill: none;"></line></g><g><text x="675" y="233" class="messageText" style="text-anchor: middle;">4.加载路由组件</text><line x1="275" y1="240" x2="1075" y2="240" class="messageLine0" stroke-width="2" stroke="black" marker-end="url(#arrowhead)" style="fill: none;"></line></g><g><text x="1175" y="268" class="messageText" style="text-anchor: middle;">5.加载Vue-Router</text><line x1="1075" y1="275" x2="1275" y2="275" class="messageLine0" stroke-width="2" stroke="black" marker-end="url(#arrowhead)" style="fill: none;"></line></g><g><text x="1275" y="303" class="messageText" style="text-anchor: middle;">6.加载业务路由定义</text><line x1="1075" y1="310" x2="1475" y2="310" class="messageLine0" stroke-width="2" stroke="black" marker-end="url(#arrowhead)" style="fill: none;"></line></g><g><text x="1075" y="338" class="messageText" style="text-anchor: middle;">7.注册用于判断用户是否登录的全局路由钩子</text><path d="M 1075,345 C 1135,335 1135,375 1075,365" class="messageLine0" stroke-width="2" stroke="black" marker-end="url(#arrowhead)" style="fill: none;"></path></g><g><text x="975" y="403" class="messageText" style="text-anchor: middle;">8.初始化顶层组件</text><line x1="275" y1="410" x2="1675" y2="410" class="messageLine0" stroke-width="2" stroke="black" marker-end="url(#arrowhead)" style="fill: none;"></line></g><g><text x="1475" y="438" class="messageText" style="text-anchor: middle;">9.执行路由匹配</text><line x1="1675" y1="445" x2="1275" y2="445" class="messageLine0" stroke-width="2" stroke="black" marker-end="url(#arrowhead)" style="fill: none;"></line></g><g><text x="1375" y="473" class="messageText" style="text-anchor: middle;">10.根据当前Url查找对应路由记录</text><line x1="1275" y1="480" x2="1475" y2="480" class="messageLine0" stroke-width="2" stroke="black" marker-end="url(#arrowhead)" style="fill: none;"></line></g><g><text x="1575" y="508" class="messageText" style="text-anchor: middle;">11.初始化路由记录中定义的组件</text><line x1="1275" y1="515" x2="1875" y2="515" class="messageLine0" stroke-width="2" stroke="black" marker-end="url(#arrowhead)" style="fill: none;"></line></g><g><rect x="0" y="535" fill="#eaeaea" stroke="#666" width="150" height="65" rx="3" ry="3" class="actor"></rect><text x="75" y="572.5" class="actor" style="text-anchor: middle;">index.html</text></g><g><rect x="200" y="535" fill="#eaeaea" stroke="#666" width="150" height="65" rx="3" ry="3" class="actor"></rect><text x="275" y="572.5" class="actor" style="text-anchor: middle;">main.js</text></g><g><rect x="400" y="535" fill="#eaeaea" stroke="#666" width="150" height="65" rx="3" ry="3" class="actor"></rect><text x="475" y="572.5" class="actor" style="text-anchor: middle;">Element.UI</text></g><g><rect x="600" y="535" fill="#eaeaea" stroke="#666" width="150" height="65" rx="3" ry="3" class="actor"></rect><text x="675" y="572.5" class="actor" style="text-anchor: middle;">VueResource</text></g><g><rect x="800" y="535" fill="#eaeaea" stroke="#666" width="150" height="65" rx="3" ry="3" class="actor"></rect><text x="875" y="572.5" class="actor" style="text-anchor: middle;">resource/interceptors</text></g><g><rect x="1000" y="535" fill="#eaeaea" stroke="#666" width="150" height="65" rx="3" ry="3" class="actor"></rect><text x="1075" y="572.5" class="actor" style="text-anchor: middle;">router</text></g><g><rect x="1200" y="535" fill="#eaeaea" stroke="#666" width="150" height="65" rx="3" ry="3" class="actor"></rect><text x="1275" y="572.5" class="actor" style="text-anchor: middle;">VueRouter</text></g><g><rect x="1400" y="535" fill="#eaeaea" stroke="#666" width="150" height="65" rx="3" ry="3" class="actor"></rect><text x="1475" y="572.5" class="actor" style="text-anchor: middle;">config/router</text></g><g><rect x="1600" y="535" fill="#eaeaea" stroke="#666" width="150" height="65" rx="3" ry="3" class="actor"></rect><text x="1675" y="572.5" class="actor" style="text-anchor: middle;">App.vue</text></g><g><rect x="1800" y="535" fill="#eaeaea" stroke="#666" width="150" height="65" rx="3" ry="3" class="actor"></rect><text x="1875" y="572.5" class="actor" style="text-anchor: middle;">Biz.vue</text></g></svg>